:SAMPLES-PER-SECOND 30
:FULLY-SPECIFIED
:DEGREES
419
root  -25.8447 37.6013 -4.80043 152.761 -82.2268 -162.844
RightUpLeg  1.75992 -8.22794 -2.26981
RightLeg  39.8839 -3.80004 -3.68971
RightFoot  -27.6344 0.15595 2.40619
RightToes  0.00048216 0.542163 -0.142577
Spine  25.39 -1.03428 12.6729
Spine1  17.1182 4.34425 -7.04537
HEad  26.2722 34.1402 -11.7066
LeftShoulder1  9.4032 -13.5078 -48.2548
LeftArm  -3.85781 37.1625 -25.0006
LeftForeArm  29.2395 -25.9619 -4.00625
LeftHand  -0.25398 0.0180481 5.50724
RightShoulder  5.33557 9.6689 34.5507
RightArm  -2.28018 0.140199 34.3262
RightForeArm  1.81437 39.0576 8.98239
RightHand  -2.90678 8.29592 -24.7164
LeftUpLeg  -15.6235 10.2015 10.1905
LeftLeg  -6.98417 29.3215 -10.2012
LeftFoot  4.49715 1.88251 -13.6151
LeftToes  1.06245e-005 4.65856e-005 -8.18504e-006
420
root  -24.5316 37.8587 -5.10975 150.032 -84.6118 -160.511
RightUpLeg  0.363219 -10.3731 -2.27596
RightLeg  39.4588 -3.82013 -3.65198
RightFoot  -25.697 0.0417893 1.70546
RightToes  0.00048216 0.542163 -0.142577
Spine  24.6721 -1.18609 12.284
Spine1  16.9098 3.64238 -5.97066
HEad  28.4337 34.4423 -10.7407
LeftShoulder1  9.3083 -13.2531 -48.4943
LeftArm  -3.06843 35.2419 -25.7306
LeftForeArm  29.3426 -23.1338 -3.50087
LeftHand  -0.25398 0.0180481 5.50724
RightShoulder  5.32496 9.56448 34.7897
RightArm  -3.42175 -0.382536 34.3029
RightForeArm  1.99609 38.6092 8.82995
RightHand  -3.01462 8.55141 -25.1397
LeftUpLeg  -16.119 10.5976 8.97227
LeftLeg  -4.15127 28.3194 -9.88194
LeftFoot  3.73021 1.51181 -11.5846
LeftToes  1.06245e-005 4.65856e-005 -8.18504e-006
421
root  -23.2909 38.2594 -5.39559 140.318 -87.6938 -151.139
RightUpLeg  -0.355185 -12.8436 -3.01644
RightLeg  37.7813 -4.3588 -3.89583
RightFoot  -23.2321 -0.117924 0.368032
RightToes  0.00048216 0.542163 -0.142577
Spine  24.2258 -1.31201 11.2646
Spine1  16.4168 2.96083 -5.27506
HEad  29.7784 33.5496 -9.31378
LeftShoulder1  9.30586 -13.2203 -48.5774
LeftArm  -2.80199 32.6769 -25.312
LeftForeArm  29.2327 -20.8785 -3.53441
LeftHand  -0.25398 0.0180481 5.50724
RightShoulder  5.34249 9.47461 35.2002
RightArm  -4.0681 -1.89191 34.5094
RightForeArm  -0.710136 37.6044 8.68006
RightHand  -3.22614 9.07381 -25.9022
LeftUpLeg  -17.3647 14.6105 5.14642
LeftLeg  2.63472 20.7247 -6.88684
LeftFoot  3.5164 1.34508 -10.4655
LeftToes  1.06245e-005 4.65856e-005 -8.18504e-006
422
root  -22.1441 38.7131 -5.60105 -60.0013 -89.6495 48.8982
RightUpLeg  -0.453754 -15.3365 -3.93026
RightLeg  35.0513 -4.61153 -3.74069
RightFoot  -20.3119 -0.199314 -0.770872
RightToes  0.00048216 0.542163 -0.142577
Spine  23.6353 -1.34496 10.9064
Spine1  15.9709 2.68333 -5.21608
HEad  30.7151 31.6496 -7.89587
LeftShoulder1  9.31996 -13.2793 -48.4795
LeftArm  -3.29778 29.7249 -24.5037
LeftForeArm  29.2294 -19.798 -3.70231
LeftHand  -0.25398 0.0180481 5.50724
RightShoulder  5.32975 9.37224 35.4241
RightArm  -3.72396 -3.93405 34.9287
RightForeArm  -5.11861 36.0312 8.46128
RightHand  -3.34485 9.36081 -26.3161
LeftUpLeg  -19.4324 25.4058 -1.47724
LeftLeg  11.2756 5.1205 -1.45164
LeftFoot  1.95948 1.22826 -10.6091
LeftToes  1.06245e-005 4.65856e-005 -8.18504e-006
423
root  -21.0376 39.2089 -5.74896 -27.6636 -87.5988 16.7171
RightUpLeg  -0.599177 -17.2356 -4.74349
RightLeg  31.4277 -4.33577 -3.11063
RightFoot  -17.0251 -0.17757 -1.24916
RightToes  0.00048216 0.542163 -0.142577
Spine  22.795 -1.16194 10.6789
Spine1  15.6141 2.83263 -5.48855
HEad  31.9022 29.5381 -6.7541
LeftShoulder1  9.30423 -13.2644 -48.4402
LeftArm  -3.75513 26.9118 -23.7797
LeftForeArm  28.89 -19.9937 -3.67271
LeftHand  -0.25398 0.0180481 5.50724
RightShoulder  5.30053 9.34232 35.2958
RightArm  -1.68809 -6.04967 35.3821
RightForeArm  -9.07956 33.622 7.98543
RightHand  -3.25227 9.12805 -26.0095
LeftUpLeg  -19.4092 26.3992 -3.44075
LeftLeg  17.5628 1.6498 1.32612
LeftFoot  0.0235728 0.979865 -9.82134
LeftToes  1.06245e-005 4.65856e-005 -8.18504e-006
424
root  -19.9739 39.667 -5.85466 -34.6085 -86.1437 24.2841
RightUpLeg  -1.1007 -19.0139 -5.34824
RightLeg  27.5219 -3.60651 -2.31051
RightFoot  -13.8019 -0.131447 -1.83073
RightToes  0.00048216 0.542163 -0.142577
Spine  21.5649 -0.754496 10.2341
Spine1  15.1347 3.10869 -5.55173
HEad  33.2611 27.6204 -5.81056
LeftShoulder1  9.2729 -13.1711 -48.5478
LeftArm  -3.98539 24.5465 -23.2623
LeftForeArm  28.3359 -21.19 -3.54037
LeftHand  -0.25398 0.0180481 5.50724
RightShoulder  5.29571 9.42155 35.0106
RightArm  2.11266 -8.04058 35.6215
RightForeArm  -10.6665 30.8088 7.30551
RightHand  -2.89137 8.21359 -24.7172
LeftUpLeg  -17.8558 21.1739 -1.98502
LeftLeg  23.6338 6.00148 3.18899
LeftFoot  -1.7662 0.719601 -8.45755
LeftToes  1.06245e-005 4.65856e-005 -8.18504e-006
425
root  -18.943 40.0067 -5.91294 -34.9087 -84.9725 25.4207
RightUpLeg  -1.92861 -20.9034 -5.74727
RightLeg  24.0149 -2.86307 -1.4481
RightFoot  -10.8533 -0.062736 -2.61927
RightToes  0.00048216 0.542163 -0.142577
Spine  19.9555 -0.338449 9.83675
Spine1  14.689 3.32483 -5.42044
HEad  34.1764 25.6504 -4.97373
LeftShoulder1  9.25788 -13.1042 -48.6646
LeftArm  -4.34937 22.4383 -22.9389
LeftForeArm  28.2326 -22.9644 -3.52834
LeftHand  -0.25398 0.0180481 5.50724
RightShoulder  5.30669 9.5104 34.8181
RightArm  6.76594 -9.98767 35.5668
RightForeArm  -9.50343 28.6697 6.70204
RightHand  -2.32343 6.65032 -22.5085
LeftUpLeg  -16.2928 17.2088 -0.908262
LeftLeg  29.208 7.73642 4.97228
LeftFoot  -3.45981 0.521078 -7.25551
LeftToes  1.06245e-005 4.65856e-005 -8.18504e-006
426
root  -17.9129 40.2119 -5.91992 -33.3412 -84.0024 24.7414
RightUpLeg  -3.09238 -20.981 -6.019
RightLeg  21.2644 -3.71354 -0.418885
RightFoot  -8.17643 0.0225483 -2.86428
RightToes  0.00048216 0.542163 -0.142577
Spine  18.2479 -0.0724982 9.71301
Spine1  14.3841 3.50769 -5.47114
HEad  34.2734 23.5188 -4.3719
LeftShoulder1  9.24983 -13.0854 -48.6775
LeftArm  -5.27576 20.3555 -22.76
LeftForeArm  29.1751 -25.0472 -3.81344
LeftHand  -0.25398 0.0180481 5.50724
RightShoulder  5.2989 9.51258 34.7525
RightArm  11.1157 -12.0623 35.3896
RightForeArm  -7.01739 27.82 6.37062
RightHand  -1.7937 4.982 -20.2539
LeftUpLeg  -14.2588 13.5497 0.124077
LeftLeg  33.6322 7.61598 5.75969
LeftFoot  -5.18827 0.372925 -6.36568
LeftToes  1.06245e-005 4.65856e-005 -8.18504e-006
427
root  -16.858 40.2954 -5.88489 -31.0224 -83.3356 23.3112
RightUpLeg  -4.72121 -19.6022 -6.1031
RightLeg  19.3064 -5.48972 0.571853
RightFoot  -5.85407 0.0883475 -2.66485
RightToes  0.00048216 0.542163 -0.142577
Spine  16.7247 0.0467817 9.77717
Spine1  14.0038 3.61719 -5.68031
HEad  33.5022 21.651 -4.27136
LeftShoulder1  9.21684 -13.0479 -48.6134
LeftArm  -6.69254 18.3859 -22.7066
LeftForeArm  30.7189 -27.4528 -4.25982
LeftHand  -0.25398 0.0180481 5.50724
RightShoulder  5.25749 9.44771 34.6383
RightArm  14.5986 -14.2201 35.4562
RightForeArm  -5.0586 27.8353 6.27536
RightHand  -1.52336 3.97334 -19.0697
LeftUpLeg  -11.7632 10.3182 1.1517
LeftLeg  36.8794 7.0425 5.99946
LeftFoot  -6.66083 0.286726 -6.053
LeftToes  1.06245e-005 4.65856e-005 -8.18504e-006
428
root  -15.7579 40.2656 -5.82268 -27.7748 -83.0182 20.8577
RightUpLeg  -6.83205 -18.5892 -5.83632
RightLeg  18.1334 -6.76685 1.27189
RightFoot  -3.86412 0.149194 -2.67268
RightToes  0.00048216 0.542163 -0.142577
Spine  15.4807 0.00631056 9.85466
Spine1  13.5347 3.50536 -5.70354
HEad  31.8832 20.3649 -4.81002
LeftShoulder1  9.15953 -12.9697 -48.5396
LeftArm  -8.48367 16.645 -22.7381
LeftForeArm  32.2206 -30.1503 -4.7844
LeftHand  -0.25398 0.0180481 5.50724
RightShoulder  5.17662 9.36055 34.289
RightArm  16.7663 -16.232 36.0999
RightForeArm  -4.13479 27.9037 6.24434
RightHand  -1.51006 3.91705 -19.0031
LeftUpLeg  -8.73281 7.99405 2.31496
LeftLeg  38.8652 6.63556 6.07027
LeftFoot  -7.82161 0.234186 -6.08743
LeftToes  1.06245e-005 4.65856e-005 -8.18504e-006
429
root  -14.6053 40.1515 -5.7338 -23.5372 -82.947 17.1733
RightUpLeg  -9.05475 -18.2984 -5.2531
RightLeg  17.3957 -7.48987 1.67647
RightFoot  -1.90471 0.20297 -2.62126
RightToes  0.00048216 0.542163 -0.142577
Spine  14.5412 -0.240279 9.8706
Spine1  13.1162 3.11418 -5.5578
HEad  29.6483 19.3435 -5.75832
LeftShoulder1  9.07949 -12.8681 -48.4124
LeftArm  -10.1825 15.0755 -22.8086
LeftForeArm  33.3587 -32.9093 -5.37368
LeftHand  -0.25398 0.0180481 5.50724
RightShoulder  5.05489 9.2227 33.7733
RightArm  16.822 -18.1402 37.2627
RightForeArm  -3.87173 27.7739 6.19955
RightHand  -1.63262 4.51573 -19.319
LeftUpLeg  -4.99756 6.88322 3.63418
LeftLeg  39.2049 5.97964 5.57764
LeftFoot  -8.80126 0.181285 -5.78188
LeftToes  1.06245e-005 4.65856e-005 -8.18504e-006
430
root  -13.4161 39.9666 -5.59828 -18.2221 -82.8922 12.1513
RightUpLeg  -11.1448 -18.8462 -4.47979
RightLeg  16.8621 -7.38937 1.8659
RightFoot  -0.0720842 0.174752 -1.78215
RightToes  0.00048216 0.542163 -0.142577
Spine  13.9787 -0.731294 9.87042
Spine1  12.5352 2.42318 -5.37121
HEad  27.3151 18.1207 -6.65641
LeftShoulder1  8.94412 -12.7116 -48.1474
LeftArm  -11.2614 13.7684 -22.8896
LeftForeArm  34.4297 -35.7309 -6.0231
LeftHand  -0.25398 0.0180481 5.50724
RightShoulder  4.91373 8.9815 33.4132
RightArm  14.6468 -20.3681 38.4372
RightForeArm  -4.88386 27.8802 6.27725
RightHand  -1.89712 5.57459 -20.2569
LeftUpLeg  -0.755629 6.6148 5.01544
LeftLeg  38.1284 4.23013 3.92772
LeftFoot  -9.4249 0.149717 -5.56934
LeftToes  1.06245e-005 4.65856e-005 -8.18504e-006
431
root  -12.1889 39.71 -5.40661 -12.1346 -82.5273 6.32518
RightUpLeg  -13.31 -19.683 -3.7391
RightLeg  16.5262 -7.10122 1.94239
RightFoot  1.27182 0.0299321 -0.18921
RightToes  0.00048216 0.542163 -0.142577
Spine  13.6622 -1.45215 9.71811
Spine1  11.5995 1.33614 -4.76354
HEad  25.2323 16.752 -7.33982
LeftShoulder1  8.75552 -12.4645 -47.8573
LeftArm  -11.8801 13.0479 -22.9413
LeftForeArm  36.0878 -39.0609 -6.83247
LeftHand  -0.25398 0.0180481 5.50724
RightShoulder  4.77894 8.64848 33.3828
RightArm  11.6207 -23.0953 39.134
RightForeArm  -8.09417 28.4727 6.58447
RightHand  -2.49478 7.378 -22.7576
LeftUpLeg  3.4625 6.53305 6.27014
LeftLeg  36.1944 1.11621 1.25036
LeftFoot  -9.80418 0.148228 -6.69568
LeftToes  1.06245e-005 4.65856e-005 -8.18504e-006
